<svg width="32" height="32" viewBox="0 0 32 32" fill="none" xmlns="http://www.w3.org/2000/svg">
<path fill-rule="evenodd" clip-rule="evenodd" d="M20.256 22.5193C20.4706 22.6713 20.7473 22.7093 20.994 22.616C21.2406 22.522 21.422 22.3113 21.4766 22.056C22.0559 19.3334 23.4612 12.4422 23.9886 9.96558C24.0286 9.77892 23.9619 9.58492 23.8152 9.46026C23.6686 9.33559 23.4652 9.2996 23.2839 9.36693C20.4886 10.4016 11.8802 13.6315 8.36159 14.9335C8.13826 15.0161 7.99293 15.2308 8.00027 15.4661C8.00827 15.7021 8.16693 15.9068 8.39559 15.9754C9.97355 16.4474 12.0448 17.1041 12.0448 17.1041C12.0448 17.1041 13.0128 20.0274 13.5175 21.514C13.5808 21.7006 13.7268 21.8473 13.9195 21.898C14.1115 21.948 14.3168 21.8953 14.4601 21.76C15.2708 20.9947 16.5241 19.8114 16.5241 19.8114C16.5241 19.8114 18.9054 21.5573 20.256 22.5193ZM12.9162 16.7348L14.0355 20.4267L14.2841 18.0887C14.2841 18.0887 18.6087 14.1882 21.074 11.9649C21.146 11.8995 21.156 11.7902 21.096 11.7135C21.0366 11.6369 20.9273 11.6189 20.8453 11.6709C17.988 13.4955 12.9162 16.7348 12.9162 16.7348Z" fill="white"/>
<rect x="0.5" y="0.5" width="31" height="31" rx="15.5" stroke="white"/>
</svg>
