<svg width="34" height="34" viewBox="0 0 34 34" fill="none" xmlns="http://www.w3.org/2000/svg">
<path d="M12.7895 8.11108H21.2105C21.7906 8.11108 22.3053 8.12997 22.7637 8.19608C25.2246 8.46997 25.8889 9.64108 25.8889 12.8333V21.1666C25.8889 24.3589 25.2246 25.53 22.7637 25.8039C22.3053 25.87 21.7906 25.8889 21.2105 25.8889H12.7895C12.2094 25.8889 11.6947 25.87 11.2363 25.8039C8.77544 25.53 8.11111 24.3589 8.11111 21.1666V12.8333C8.11111 9.64108 8.77544 8.46997 11.2363 8.19608C11.6947 8.12997 12.2094 8.11108 12.7895 8.11108Z" stroke="white" stroke-width="2" stroke-linecap="round" stroke-linejoin="round"/>
<path d="M1 14.3333H4.55556" stroke="white" stroke-width="2" stroke-linecap="round" stroke-linejoin="round"/>
<path d="M1 19.6667H4.55556" stroke="white" stroke-width="2" stroke-linecap="round" stroke-linejoin="round"/>
<path d="M29.4445 14.3333H33" stroke="white" stroke-width="2" stroke-linecap="round" stroke-linejoin="round"/>
<path d="M29.4445 19.6667H33" stroke="white" stroke-width="2" stroke-linecap="round" stroke-linejoin="round"/>
<path d="M14.3333 33L14.3333 29.4444" stroke="white" stroke-width="2" stroke-linecap="round" stroke-linejoin="round"/>
<path d="M19.6667 33L19.6667 29.4444" stroke="white" stroke-width="2" stroke-linecap="round" stroke-linejoin="round"/>
<path d="M14.3333 4.55566L14.3333 1.00011" stroke="white" stroke-width="2" stroke-linecap="round" stroke-linejoin="round"/>
<path d="M19.6667 4.55566L19.6667 1.00011" stroke="white" stroke-width="2" stroke-linecap="round" stroke-linejoin="round"/>
</svg>
