<svg width="34" height="32" viewBox="0 0 34 32" fill="none" xmlns="http://www.w3.org/2000/svg">
<path d="M9.42105 3H24.5789C25.6232 3 26.5495 3.03368 27.3747 3.15158C31.8042 3.64 33 5.72842 33 11.4211V21.5263C33 27.2189 31.8042 29.3074 27.3747 29.7958C26.5495 29.9137 25.6232 29.9474 24.5789 29.9474H9.42105C8.37684 29.9474 7.45053 29.9137 6.62526 29.7958C2.19579 29.3074 1 27.2189 1 21.5263V11.4211C1 5.72842 2.19579 3.64 6.62526 3.15158C7.45053 3.03368 8.37684 3 9.42105 3Z" stroke="white" stroke-width="2" stroke-linecap="round" stroke-linejoin="round"/>
<path d="M19.5264 13.1052H25.4211" stroke="white" stroke-width="2" stroke-linecap="round" stroke-linejoin="round"/>
<path d="M8.5791 22.3684H8.61279H25.4212" stroke="white" stroke-width="2" stroke-linecap="round" stroke-linejoin="round"/>
<path d="M13.791 13.1052H13.8062" stroke="white" stroke-width="2" stroke-linecap="round" stroke-linejoin="round"/>
<path d="M8.73828 13.1052H8.75342" stroke="white" stroke-width="2" stroke-linecap="round" stroke-linejoin="round"/>
</svg>
