<svg width="34" height="34" viewBox="0 0 34 34" fill="none" xmlns="http://www.w3.org/2000/svg">
<path d="M6.53866 27.4362V22.7407C6.53866 21.1809 7.75454 19.7819 9.48237 19.7819C11.0342 19.7819 12.4261 21.004 12.4261 22.7407V27.2593C12.4261 30.395 9.83434 33 6.71464 33C3.59495 33 1.0032 30.3789 1.0032 27.2593V17.3538C0.827218 8.31658 7.93052 1 16.9216 1C25.9127 1 33 8.31658 33 17.1769V27.0824C33 30.2181 30.4083 32.8231 27.2886 32.8231C24.1689 32.8231 21.5771 30.2181 21.5771 27.0824V22.5638C21.5771 21.004 22.793 19.605 24.5208 19.605C26.0727 19.605 27.4645 20.8271 27.4645 22.5638V27.4362" stroke="white" stroke-width="2" stroke-linecap="round" stroke-linejoin="round"/>
</svg>
