<svg width="32" height="35" viewBox="0 0 32 35" fill="none" xmlns="http://www.w3.org/2000/svg">
<path d="M16.0001 33.5C23.5356 33.5 29.6843 27.4572 29.6843 20.0517V14.4483C29.6843 7.04276 23.5356 1 16.0001 1C8.46469 1 2.31592 7.04276 2.31592 14.4483V20.0517C2.31592 27.4572 8.46469 33.5 16.0001 33.5Z" stroke="white" stroke-width="2" stroke-linecap="round" stroke-linejoin="round"/>
<path d="M16 17.138C14.4856 17.138 13.2632 15.9366 13.2632 14.4483V10.8621C13.2632 9.37386 14.4856 8.17249 16 8.17249C17.4962 8.17249 18.7369 9.37386 18.7369 10.8621V14.4483C18.7369 15.9366 17.4962 17.138 16 17.138Z" stroke="white" stroke-width="2" stroke-linecap="round" stroke-linejoin="round"/>
<path d="M16 8.17241V1" stroke="white" stroke-width="2" stroke-linecap="round" stroke-linejoin="round"/>
</svg>
