<svg width="32" height="32" viewBox="0 0 32 32" fill="none" xmlns="http://www.w3.org/2000/svg">
<path d="M16.7743 20.6624C17.1803 20.6624 17.3463 20.3918 17.3416 20.0525C17.3209 18.7745 17.8176 18.0865 18.7142 18.9832C19.7062 19.9751 19.9115 20.6624 21.1161 20.6624H23.2494C23.788 20.6624 24 20.4891 24 20.2171C24 19.6418 23.0527 18.6265 22.2501 17.8812C21.1261 16.8379 21.0735 16.8133 22.0414 15.5573C23.242 13.9981 24.8126 12.0001 23.4234 12.0001H20.7695C20.2548 12.0001 20.2175 12.2901 20.0342 12.7221C19.3709 14.2867 18.1102 16.3133 17.6316 16.0033C17.131 15.68 17.3603 14.3994 17.3983 12.4961C17.4083 11.9935 17.4056 11.6488 16.6376 11.4702C16.2183 11.3735 15.8103 11.3335 15.4317 11.3335C13.9164 11.3335 12.8711 11.9688 13.4651 12.0795C14.5124 12.2748 14.4117 14.5407 14.1677 15.5193C13.7424 17.2233 12.1438 14.17 11.4779 12.6494C11.3172 12.2841 11.2679 12.0001 10.6946 12.0001H8.52464C8.19666 12.0001 8 12.1068 8 12.3441C8 12.7454 9.97325 16.8239 11.8572 18.8572C13.6944 20.8404 15.5104 20.6624 16.7743 20.6624Z" fill="white"/>
<rect x="0.5" y="0.5" width="31" height="31" rx="15.5" stroke="white"/>
</svg>
