<svg width="34" height="34" viewBox="0 0 34 34" fill="none" xmlns="http://www.w3.org/2000/svg">
<path d="M33 27.128C33 27.704 32.8718 28.296 32.5994 28.872C32.327 29.448 31.9745 29.992 31.5098 30.504C30.7246 31.368 29.8593 31.992 28.8818 32.392C27.9204 32.792 26.8788 33 25.7571 33C24.1227 33 22.3761 32.616 20.5333 31.832C18.6905 31.048 16.8478 29.992 15.021 28.664C13.1783 27.32 11.4316 25.832 9.76515 24.184C8.11467 22.52 6.62444 20.776 5.29444 18.952C3.98047 17.128 2.92288 15.304 2.15373 13.496C1.38458 11.672 1 9.928 1 8.264C1 7.176 1.19229 6.136 1.57687 5.176C1.96144 4.2 2.57036 3.304 3.41963 2.504C4.44517 1.496 5.56685 1 6.75263 1C7.2013 1 7.64998 1.096 8.05058 1.288C8.4672 1.48 8.83575 1.768 9.12419 2.184L12.8418 7.416C13.1302 7.816 13.3385 8.184 13.4827 8.536C13.6269 8.872 13.7071 9.208 13.7071 9.512C13.7071 9.896 13.5949 10.28 13.3706 10.648C13.1622 11.016 12.8578 11.4 12.4732 11.784L11.2554 13.048C11.0791 13.224 10.999 13.432 10.999 13.688C10.999 13.816 11.015 13.928 11.0471 14.056C11.0951 14.184 11.1432 14.28 11.1753 14.376C11.4637 14.904 11.9604 15.592 12.6655 16.424C13.3866 17.256 14.1557 18.104 14.989 18.952C15.8543 19.8 16.6875 20.584 17.5368 21.304C18.3701 22.008 19.0591 22.488 19.6039 22.776C19.684 22.808 19.7802 22.856 19.8923 22.904C20.0205 22.952 20.1487 22.968 20.2929 22.968C20.5653 22.968 20.7737 22.872 20.9499 22.696L22.1678 21.496C22.5684 21.096 22.9529 20.792 23.3215 20.6C23.69 20.376 24.0586 20.264 24.4592 20.264C24.7636 20.264 25.0841 20.328 25.4367 20.472C25.7892 20.616 26.1577 20.824 26.5583 21.096L31.8623 24.856C32.2789 25.144 32.5674 25.48 32.7436 25.88C32.9039 26.28 33 26.68 33 27.128Z" stroke="white" stroke-width="2" stroke-miterlimit="10"/>
</svg>
